# xmcd
#
# Track frame offsets:
#	150
#	13891
#	29358
#	42662
#	55929
#	69308
#	83179
#	99148
#	113645
#	127261
#	144435
#	158715
#	172676
#	189139
#	202377
#	215252
#	228507
#	239670
#
# Disc length: 3404 seconds
#
# Revision: 1
# Processed by: cddbd v1.5.2PL0 Copyright (c) Steve Scherf et al.
# Submitted via: audiograbber 1.83.01
#
DISCID=f80d4a12
DTITLE=Cesar Menotti and Fabiano - Com Você
DYEAR=2007
DGENRE=Sertaneja
TTITLE0=www.Volta Pra Mim
TTITLE1=Caso Por Acaso
TTITLE2=Coração De Papel
TTITLE3=Talvez
TTITLE4=Gabriela
TTITLE5=Tempo Pra Amar
TTITLE6=Foi Tudo Engano
TTITLE7=Do Lado Esquerdo
TTITLE8=E Eu
TTITLE9=Segura Na Mão De Deus
TTITLE10=Galera Do Bem
TTITLE11=Vem Tomar Café Comigo
TTITLE12=De Frente Pro Sol
TTITLE13=Saudade De Minas
TTITLE14=Nóis Bebe É Guaraná
TTITLE15=Vem Me Amar
TTITLE16=Sincero Amor
TTITLE17=Sertaneja
EXTD=
EXTT0=
EXTT1=
EXTT2=
EXTT3=
EXTT4=
EXTT5=
EXTT6=
EXTT7=
EXTT8=
EXTT9=
EXTT10=
EXTT11=
EXTT12=
EXTT13=
EXTT14=
EXTT15=
EXTT16=
EXTT17=
PLAYORDER=
